<svg id="Слой_2" data-name="Слой 2" xmlns="http://www.w3.org/2000/svg" viewBox="0 0 100 100"><path d="M83.89 15.11A7.29 7.29 0 0078.21 13 50.71 50.71 0 0046 27.85L44.87 29H30.13a1.5 1.5 0 00-1.07.45l-15.63 16A1.5 1.5 0 0014.5 48h14.38l3.85 3.85a22.9 22.9 0 00-15.48 6.82c-12.25 12.4-2.6 26.55-2.5 26.69a1.5 1.5 0 002.73-.86c0-4.81 4.51-9.37 9.27-9.37a8.63 8.63 0 018.58 8.66A1.5 1.5 0 0037.68 85 24.09 24.09 0 0047 66.11l4 4V84.5a1.5 1.5 0 002.56 1.06l16-16a1.5 1.5 0 00.44-1.04V54.13L71.15 53A50.71 50.71 0 0086 20.79a7.29 7.29 0 00-2.11-5.68zM30.76 32h11.11l-13 13H18.06zm7.18 48.83a11.61 11.61 0 00-11.2-8.69c-4.92 0-9.5 3.46-11.38 8-1.75-4.37-3.16-12.1 4-19.33A19.89 19.89 0 0135.85 55l8 8a21.82 21.82 0 01-5.91 17.83zM67 67.9l-13 13V70.13l13-13zm2-17l-1.56 1.56-.05.05L52.5 67.38 31.62 46.5l14.91-14.91.05-.05L48.14 30a47.71 47.71 0 0130.28-14A4.22 4.22 0 0183 20.58a47.71 47.71 0 01-14 30.28z"/><path d="M63.5 27a9.5 9.5 0 106.72 2.78A9.44 9.44 0 0063.5 27zm4.6 14.1a6.5 6.5 0 111.9-4.6 6.46 6.46 0 01-1.9 4.6z"/></svg>