<svg id="Layer_1" data-name="Layer 1" xmlns="http://www.w3.org/2000/svg" viewBox="0 0 101 101"><path d="M50.22 56.69a14.49 14.49 0 00-12.82 7.82 1.5 1.5 0 002.65 1.4 11.4 11.4 0 0120.14-.32 1.5 1.5 0 002.61-1.48 14.54 14.54 0 00-12.58-7.42zm-.16-1.56A10.06 10.06 0 1040 45.06a10.08 10.08 0 0010.06 10.07zm0-17.13A7.06 7.06 0 1143 45.06 7.07 7.07 0 0150.06 38z"/><path d="M88.5 22H52.12L67.56 6.56a1.5 1.5 0 00-2.12-2.12L49.5 20.38 38.56 9.44a1.5 1.5 0 00-2.12 2.12L46.88 22H12.5a1.5 1.5 0 00-1.5 1.5v55a1.5 1.5 0 001.5 1.5h76a1.5 1.5 0 001.5-1.5v-55a1.5 1.5 0 00-1.5-1.5zM87 77H14V25h73z"/><path d="M19.5 72h62a1.5 1.5 0 001.5-1.5v-40a1.5 1.5 0 00-1.5-1.5h-62a1.5 1.5 0 00-1.5 1.5v40a1.5 1.5 0 001.5 1.5zM21 32h59v37H21z"/></svg>