<svg version="1.0" xmlns="http://www.w3.org/2000/svg" width="86.667" height="80" viewBox="0 0 65 60"><path d="M7.4 2.5C6 3.9 3.8 5 2.5 5H0v50h2.8c1.7 0 3.8 1 5.2 2.5 3.2 3.4 8.5 3.4 12 0 2.7-2.6 2.7-2.6 23.6-2.8l20.9-.2.2-24.8L65 5H22.7l-2.3-2.5C18.7.6 17.1 0 14 0c-3 0-4.7.6-6.6 2.5zm11.4 3c.8 1.7 1.2 10.1 1.2 25 0 21.2-.1 22.6-2 24.5-2.6 2.6-5.5 2.5-8 0-1.9-1.9-2-3.1-1.8-25.8.2-18.3.6-23.6 1.6-23.5.6.2 1.1 0 1.1-.5-.3-1.8.3-2.2 3.4-2.2 2.6 0 3.6.6 4.5 2.5zM61 29.8v21.9l-17.7-.1c-10.6-.1-18.1-.5-18.5-1.1-.5-.6-.9-.4-1 .5-.5 3.2-1.3-24.6-1-33.6l.3-9.4H61v21.8z"/><path d="M30.3 9.8l4.7.3V24h23.8l.4-7.3.3-7.2h-17c-9.3 0-14.9.1-12.2.3z"/></svg>