<svg version="1.0" xmlns="http://www.w3.org/2000/svg" width="86.667" height="105.333" viewBox="0 0 65 79"><path d="M23.3 2.6C20.8 4 17.9 7 16.4 9.5c-2.1 3.7-2.5 5.4-2.2 10.9.2 3.5.5 6.2.7 6 .3-.2 1.6 1.6 3.1 4C22.1 37.6 31.4 49 33 49c1.8 0 11.3-11.9 15.7-19.8 2.5-4.3 3.3-6.9 3.3-10.6 0-14.4-16.3-23.5-28.7-16zm15.4 1.5C46 6.8 50.2 15 48 22.2c-.6 2.1-1.5 3.6-2 3.3-.6-.3-.7 0-.4.8.5 1.3-5 10.1-10.1 16.2l-2.5 3-2.1-2.5c-14-17.5-16.7-26.3-10.2-34.1 4.5-5.3 11.6-7.2 18-4.8z"/><path d="M32.2 9.8c-2 1.3-1.2 16.7.8 16.7 1 0 1.6-1.2 1.8-3.4.3-2.5.6-3.1 1.3-2 .6 1 .9 1 .9.1 0-.6 1-1.2 2.3-1.2 1.3 0 2.8-.5 3.5-1.2 1.7-1.7 1.5-6.3-.3-7.8s-8.6-2.3-10.3-1.2z"/><path d="M3.5 20.8c.2.3-.4 1.1-1.5 1.9C.1 24 0 25.3 0 44.4 0 61.2.3 65 1.5 66c.8.7 1.3 1.5 1.1 1.9-.2.3 4.8.5 11.2.5 8-.1 10.1.1 6.7.5l-5 .7 5 .5 5 .5-5.1.2c-3.2.1-5.6.8-6.4 1.7-.7.8-1.5 1.3-1.9 1-.4-.2-.5.9-.3 2.6l.4 2.9h41.6l.4-2.9c.2-1.7.1-2.8-.3-2.6-.4.3-1.2-.2-1.9-1-.8-1-3.1-1.5-6.9-1.5-3.5 0-5.1-.3-4.2-.9 1.1-.7 1.1-.9 0-1.4-.8-.4 3.8-.5 10.3-.4 6.4.1 11.4-.1 11.2-.4-.2-.4.3-1.2 1.1-1.9 1.2-1 1.5-4.7 1.5-21.1 0-18.3-.2-20.1-1.9-21.8-1.1-1.1-1.7-2.2-1.4-2.4.5-.5-.1-.5-5.8.7-1.5.3-2.9 1.4-3.1 2.3-.4 1.5.2 1.8 4 1.8h4.5l.1 16.2.1 16.2-28.2.1C11.1 58 5 57.8 5 56.8c0-.9-.3-.8-1 .2-.6 1-1-3.9-1-14.7 0-8.9.4-16.4.8-16.7.5-.3 2.9-.6 5.4-.7 3.3-.2 4.5-.6 4.1-1.6-.3-.7-1.5-1.5-2.7-1.7-4.7-1-7.6-1.3-7.1-.8zm57.6 40.9c-1.1.5-1.1.7 0 1.4.8.5-11.3.9-28.3.9C7 64 3 63.8 3 62.5s3.9-1.5 29.8-1.4c16.3 0 29.1.3 28.3.6z"/></svg>